<svg id="Calque_1" data-name="Calque 1" xmlns="http://www.w3.org/2000/svg" viewBox="0 0 1721 546"><defs><style>.cls-1{fill:#4ea933;}</style></defs><path class="cls-1" d="M899,318a67,67,0,0,1-1,14.1c-.9,6.5-4.7,9.3-10.3,9.3H756.4c7.5,23.5,25.3,32.9,46,32.9a49,49,0,0,0,29-9.4c3.8-2.8,7.5-4.7,12.2-4.7h37.5c7.5,0,11.3,4.7,7.5,11.3-15,33.7-47.8,51.5-87.2,51.5-64.7,0-106.9-45-106.9-103.1s43.2-103.2,105.1-103.2C856.8,214.9,899,258.9,899,318Zm-59.1-21.6c-5.6-22.5-23.5-30-40.3-30-21.6,0-37.5,10.4-43.2,30Z"/><path class="cls-1" d="M992.7,220.5H1019c6.5,0,9.4,3.7,9.4,9.4v36.5c0,6.6-3.8,9.4-9.4,9.4H992.7V405.2c0,6.6-3.7,9.4-9.4,9.4H944c-6.6,0-9.4-3.8-9.4-9.4V276.8H917.7c-6.6,0-9.4-3.8-9.4-9.4V230.8c0-6.6,3.8-9.4,9.4-9.4h16.9c0-52.5,27.2-84.4,85.3-84.4,6.6,0,9.4,3.8,9.4,10.4v36.5c0,6.6-3.8,9.4-10.3,9.4C1003,192.4,992.7,201.7,992.7,220.5Z"/><path class="cls-1" d="M1125.9,220.5h26.2c6.6,0,9.4,3.7,9.4,9.4v36.5c0,6.6-3.8,9.4-9.4,9.4h-26.2V405.2c0,6.6-3.8,9.4-9.4,9.4h-39.4c-6.6,0-9.4-3.8-9.4-9.4V276.8h-16.8c-6.6,0-9.4-3.8-9.4-9.4V230.8c0-6.6,3.7-9.4,9.4-9.4h16.8c0-52.5,27.2-84.4,85.4-84.4,6.5,0,9.3,3.8,9.3,10.4v36.5c0,6.6-3.7,9.4-10.3,9.4C1136.2,192.4,1125.9,201.7,1125.9,220.5Z"/><path class="cls-1" d="M1184,406.1V229.9c0-6.6,3.8-9.4,9.4-9.4h39.4c6.5,0,9.3,3.7,9.3,9.4V406.1c0,6.6-3.7,9.4-9.3,9.4h-39.4C1187.8,415.5,1184,412.7,1184,406.1Z"/><path class="cls-1" d="M1475.6,352.7c-12.2,40.3-50.6,68.4-96.6,68.4-59,0-104-45-104-103.1s44-103.1,104-103.1c46,0,84.4,28.1,96.6,68.4,2.8,6.6-1.9,11.3-8.4,11.3H1424c-4.6,0-8.4-2.8-12.2-6.6-7.5-9.4-18.7-15-32.8-15-25.3,0-45,18.8-45,45s19.7,45,45,45c14.1,0,26.3-5.6,32.8-15,2.9-4.7,6.6-7.5,12.2-7.5h43.2C1474.7,341.4,1478.4,346.1,1475.6,352.7Z"/><path class="cls-1" d="M1626.6,220.5h42.2c7.5,0,10.3,3.7,8.4,11.2l-84.4,255.1c-1.9,5.6-5.6,7.5-11.2,7.5h-42.2c-7.5,0-10.3-3.8-8.5-11.3l23.5-70.3-68.5-181c-2.8-6.5,1-11.2,7.5-11.2h42.2c5.6,0,9.4,2.8,11.3,7.5l37.5,104.1,31.9-103.2C1617.2,223.3,1620.9,220.5,1626.6,220.5Z"/><circle class="cls-1" cx="608.3" cy="319.9" r="26.3" transform="translate(195.1 869.1) rotate(-80.8)"/><path class="cls-1" d="M1184,181.1V145.5c0-6.6,3.8-9.4,9.4-9.4h39.4c6.5,0,9.3,3.8,9.3,9.4v35.6c0,6.6-3.7,9.4-9.3,9.4h-39.4C1187.8,190.5,1184,187.7,1184,181.1Z"/><path class="cls-1" d="M726.4,476.5c0,10.3-7.5,17.8-16.8,17.8H695.5c-1,0-1,0-1-1V460.5c0-.9,0-.9,1-.9h14.1C719.9,458.7,726.4,466.2,726.4,476.5Zm-5.6,0c0-6.6-4.7-12.2-11.2-12.2h-9.4v24.4h9.4C717.1,487.7,720.8,483,720.8,476.5Z"/><path class="cls-1" d="M753.6,489.6v3.7c0,1,0,1-.9,1H733.9c-.9,0-.9,0-.9-1V460.5c0-.9,0-.9.9-.9h17.8c1,0,1,0,1,.9v3.8c0,.9,0,.9-1,.9H738.6v9.4h12.2c.9,0,.9,0,.9.9v2.8c0,1,0,1-.9,1H738.6v9.4h14.1C753.6,487.7,753.6,488.7,753.6,489.6Z"/><path class="cls-1" d="M780.8,489.6v3.7c0,1,0,1-.9,1H761.1c-.9,0-.9,0-.9-1V460.5c0-.9,0-.9.9-.9h17.8c1,0,1,0,1,.9v3.8c0,.9,0,.9-1,.9H765.8v9.4H778c.9,0,.9,0,.9.9v2.8c0,1,0,1-.9,1H765.8v9.4h14.1C780.8,487.7,780.8,488.7,780.8,489.6Z"/><path class="cls-1" d="M811.8,469.9a10.9,10.9,0,0,1-11.3,11.3H793v11.2c0,.9,0,.9-.9.9h-3.8c-.9,0-.9,0-.9-.9V459.6c0-.9,0-.9.9-.9h12.2C807.1,458.7,811.8,463.3,811.8,469.9Zm-5.7,0a5.4,5.4,0,0,0-5.6-5.6H793v12.2h7.5C803.3,475.5,806.1,472.7,806.1,469.9Z"/><path class="cls-1" d="M838.9,489.6v3.7c0,1,0,1-.9,1H819.3c-1,0-1,0-1-1V460.5c0-.9,0-.9,1-.9h17.8c.9,0,.9,0,.9.9v3.8c0,.9,0,.9-.9.9H823.9v9.4h12.2c1,0,1,0,1,.9v2.8c0,1,0,1-1,1H823.9v9.4H838C838,487.7,838.9,488.7,838.9,489.6Z"/><path class="cls-1" d="M871.8,493.3h-4.7c-1,0-1,0-1.9-.9l-10.3-12.2h-5.6v12.2c0,.9,0,.9-1,.9h-3.7c-1,0-1,0-1-.9V459.6c0-.9,0-.9,1-.9h13.1c6.6,0,11.3,4.6,11.3,11.2a11.6,11.6,0,0,1-6.6,10.3l10.3,12.2C873.6,493.3,872.7,493.3,871.8,493.3Zm-20.7-17.8h6.6a6,6,0,0,0,5.6-5.6,5.4,5.4,0,0,0-5.6-5.6h-7.5v11.2Z"/><path class="cls-1" d="M889.6,476.5c0-10.3,7.5-18.8,18.7-18.8A18.5,18.5,0,0,1,925.2,469c0,.9,0,.9-.9.9h-3.8c-.9,0-.9,0-.9-.9a11.5,11.5,0,0,0-10.3-6.6c-7.5,0-12.2,5.6-12.2,13.1s4.7,13.2,12.2,13.2a11.6,11.6,0,0,0,10.3-6.6.9.9,0,0,1,.9-.9h3.8a.9.9,0,0,1,.9.9c-1.9,6.6-8.4,11.2-16.9,11.2A16.7,16.7,0,0,1,889.6,476.5Z"/><path class="cls-1" d="M929.9,483V459.6c0-.9,0-.9.9-.9h3.8c.9,0,.9,0,.9.9V483c0,3.8,2.8,5.7,6.6,5.7s6.6-1.9,6.6-5.7V459.6c0-.9,0-.9.9-.9h3.7c1,0,1,0,1,.9V483c0,7.5-5.6,11.3-12.2,11.3S929.9,490.5,929.9,483Z"/><path class="cls-1" d="M960.8,484c0-1,0-1,1-1h3.7c1,0,1,0,1,1,0,2.8,2.8,4.7,6.5,4.7s5.7-1.9,5.7-4.7-2.9-4.7-6.6-5.7c-5.6-1.8-11.3-3.7-11.3-11.2s5.7-10.3,11.3-10.3,11.2,2.8,11.2,9.4c0,.9,0,.9-.9.9h-2.8c-.9,0-.9,0-.9-.9,0-2.9-2.9-4.7-5.7-4.7s-5.6,1.8-5.6,4.7,2.8,4.6,6.6,5.6c5.6,1.9,11.2,3.7,11.2,11.2s-5.6,10.3-12.2,10.3S961.8,491.5,960.8,484Z"/><path class="cls-1" d="M1011.5,459.6v3.7c0,1,0,1-1,1H1003v29c0,1,0,1-.9,1h-3.8c-.9,0-.9,0-.9-1v-29H989c-1,0-1,0-1-1v-3.7c0-.9,0-.9,1-.9h21.5C1011.5,458.7,1011.5,458.7,1011.5,459.6Z"/><path class="cls-1" d="M1013.3,476.5a18.8,18.8,0,1,1,18.8,18.7C1021.8,494.3,1013.3,485.8,1013.3,476.5Zm31,0c0-7.5-5.6-13.2-12.2-13.2s-12.2,5.7-12.2,13.2,5.6,13.1,12.2,13.1S1044.3,483,1044.3,476.5Z"/><path class="cls-1" d="M1090.2,459.6v32.8c0,.9,0,.9-.9.9h-3.8c-.9,0-.9,0-.9-.9V468l-8.4,18.8c0,.9-1,.9-1,.9h-2.8c-.9,0-.9,0-.9-.9L1063,468v24.4c0,.9,0,.9-.9.9h-3.7c-1,0-1,0-1-.9V459.6c0-.9,0-.9,1-.9h4.6c1,0,1,0,1,.9l9.4,21.6,9.3-21.6c0-.9,1-.9,1-.9h4.7C1090.2,458.7,1090.2,458.7,1090.2,459.6Z"/><path class="cls-1" d="M1119.3,489.6v3.7c0,1,0,1-.9,1h-18.8c-.9,0-.9,0-.9-1V460.5c0-.9,0-.9.9-.9h17.8c1,0,1,0,1,.9v3.8c0,.9,0,.9-1,.9h-13.1v9.4h12.2c.9,0,.9,0,.9.9v2.8c0,1,0,1-.9,1h-12.2v9.4h14.1C1118.4,487.7,1119.3,488.7,1119.3,489.6Z"/><path class="cls-1" d="M1152.1,493.3h-3.7c-1,0-1,0-1.9-.9l-10.3-12.2h-5.6v12.2c0,.9,0,.9-1,.9h-3.7c-1,0-1,0-1-.9V459.6c0-.9,0-.9,1-.9h12.2a10.8,10.8,0,0,1,11.2,11.2,11.5,11.5,0,0,1-6.6,10.3l10.4,12.2C1154,493.3,1154,493.3,1152.1,493.3Zm-20.6-17.8h7.5a6,6,0,0,0,5.6-5.6,5.4,5.4,0,0,0-5.6-5.6h-7.5Z"/><path class="cls-1" d="M1192.4,489.6v3.7c0,1,0,1-.9,1h-18.8c-.9,0-.9,0-.9-1V460.5c0-.9,0-.9.9-.9h17.9c.9,0,.9,0,.9.9v3.8c0,.9,0,.9-.9.9h-13.2v9.4h12.2c1,0,1,0,1,.9v2.8c0,1,0,1-1,1h-12.2v9.4h14.1C1192.4,487.7,1192.4,488.7,1192.4,489.6Z"/><path class="cls-1" d="M1219.6,458.7h3.8c.9,0,.9,0,.9.9v32.8c0,.9,0,.9-.9.9h-2.8c-1,0-1,0-1-.9l-14-23.4v22.5c0,.9,0,.9-1,.9h-3.7c-1,0-1,0-1-.9V458.7c0-1,0-1,1-1h2.8c.9,0,.9,0,.9,1l14.1,23.4V459.6C1218.7,458.7,1218.7,458.7,1219.6,458.7Z"/><path class="cls-1" d="M1265.6,476.5v15.9c0,.9,0,.9-1,.9h-3.7c-1,0-1,0-1-.9v-3.7c-2.8,3.7-6.5,5.6-12.1,5.6-10.4,0-17.9-8.5-17.9-18.8s7.5-18.7,18.8-18.7a18.6,18.6,0,0,1,16.9,11.2c0,1,0,1-1,1h-3.7c-1,0-1,0-1-1-1.8-3.7-5.6-5.6-10.3-5.6-7.5,0-12.2,5.6-12.2,13.1s5.7,13.2,12.2,13.2,10.3-2.9,11.3-8.5h-9.4c-.9,0-.9,0-.9-.9v-2.8c0-1,0-1,.9-1h14.1Z"/><path class="cls-1" d="M1300.3,493.3h-3.8c-.9,0-.9,0-.9-.9l-1.9-6.6h-15l-1.9,6.6a.9.9,0,0,1-.9.9h-3.8a.9.9,0,0,1-.9-.9l12.2-32.8a.9.9,0,0,1,.9-.9h4.7c1,0,1,0,1,.9l12.1,32.8C1302.1,493.3,1301.2,493.3,1300.3,493.3Zm-8.5-12.1-5.6-16-5.6,16Z"/><path class="cls-1" d="M1338.7,476.5v15.9c0,.9,0,.9-.9.9H1334c-.9,0-.9,0-.9-.9v-3.7c-2.8,3.7-6.6,5.6-12.2,5.6-10.3,0-17.8-8.5-17.8-18.8s7.5-18.7,18.7-18.7a18.6,18.6,0,0,1,16.9,11.2c0,1,0,1-.9,1H1334c-.9,0-.9,0-.9-1-1.9-3.7-5.6-5.6-10.3-5.6-7.5,0-12.2,5.6-12.2,13.1s5.6,13.2,12.2,13.2,10.3-2.9,11.2-8.5h-9.4c-.9,0-.9,0-.9-.9v-2.8c0-1,0-1,.9-1h14.1Z"/><path class="cls-1" d="M1366.8,489.6v3.7c0,1,0,1-.9,1h-18.7c-1,0-1,0-1-1V460.5c0-.9,0-.9,1-.9H1365c.9,0,.9,0,.9.9v3.8c0,.9,0,.9-.9.9h-13.2v9.4H1364c1,0,1,0,1,.9v2.8c0,1,0,1-1,1h-12.2v9.4h14.1C1366.8,487.7,1366.8,488.7,1366.8,489.6Z"/><path class="cls-1" d="M1407.2,459.6v32.8c0,.9,0,.9-1,.9h-3.7c-1,0-1,0-1-.9V468l-8.4,18.8a.9.9,0,0,1-.9.9h-2.9c-.9,0-.9,0-.9-.9L1380,468v24.4c0,.9,0,.9-1,.9h-3.7c-1,0-1,0-1-.9V459.6c0-.9,0-.9,1-.9h4.7c.9,0,.9,0,.9.9l9.4,21.6,9.4-21.6a.9.9,0,0,1,.9-.9h4.7C1406.2,458.7,1407.2,458.7,1407.2,459.6Z"/><path class="cls-1" d="M1436.2,489.6v3.7c0,1,0,1-.9,1h-18.8c-.9,0-.9,0-.9-1V460.5c0-.9,0-.9.9-.9h17.9c.9,0,.9,0,.9.9v3.8c0,.9,0,.9-.9.9h-13.2v9.4h12.2c1,0,1,0,1,.9v2.8c0,1,0,1-1,1h-12.2v9.4h14.1C1435.3,487.7,1436.2,488.7,1436.2,489.6Z"/><path class="cls-1" d="M1462.5,458.7h3.7c1,0,1,0,1,.9v32.8c0,.9,0,.9-1,.9h-2.8c-.9,0-.9,0-.9-.9L1448.4,469v22.5c0,.9,0,.9-.9.9h-3.8c-.9,0-.9,0-.9-.9V458.7c0-1,0-1,.9-1h2.8c1,0,1,0,1,1l14,23.4V459.6C1461.5,458.7,1462.5,458.7,1462.5,458.7Z"/><path class="cls-1" d="M1496.2,459.6v3.7c0,1,0,1-.9,1h-7.5v29c0,1,0,1-.9,1h-3.8c-.9,0-.9,0-.9-1v-29h-7.5c-1,0-1,0-1-1v-3.7c0-.9,0-.9,1-.9h21.5Z"/><path class="cls-1" d="M469.5,206.4c-16.9-10.3-36.6-16.9-59.1-21.5a3.4,3.4,0,0,1-2.8-1V150.2A27.2,27.2,0,0,0,380.4,123H361.7V86.4a4,4,0,0,1,3.7-3.7h17.8V50.8H365.4c-19.7,0-35.6,9.4-35.6,35.6V123h-9.4a27.5,27.5,0,0,0-25.3,17.8l-17.8,49.7A493.1,493.1,0,0,0,221,207.4a345.1,345.1,0,0,0-41.2,18.7l-41.3-24.4c-1.9-.9-3.7-1.8-5.6-1.8a10.4,10.4,0,0,0-10.3,10.3v56.2c-11.3,12.2-17.8,24.4-18.8,36.6H67.3l7.5-16.9c1.8-4.7,0-10.3-5.7-14-7.5-5.7-22.5-6.6-30-1.9s-8.4,12.2-2.8,16.9l23.5,22.5L46.6,337.7c-3.7,8.4-1.8,17.8,5.7,24.4,11.2,11.2,34.7,14,44,3.7,7.5-9.3,6.6-22.5-2.8-30L74.8,318h30c2.8,11.3,8.4,21.6,17.8,31.9v56.2c0,6.6,4.7,10.4,10.3,10.4,1.9,0,3.7,0,5.6-1.9l41.3-24.4A345,345,0,0,0,221,409a424.3,424.3,0,0,0,95.7,24.3h.9a354.7,354.7,0,0,0,44.1,2.9,290.8,290.8,0,0,0,50.6-4.7c21.6-4.7,42.2-11.3,59.1-21.6,38.4-22.5,62.8-60,62.8-103.1C534.2,266.4,508.9,228.9,469.5,206.4Zm29.1,103.2c0,37.5-25.3,69.4-77.8,84.4S309.2,405.2,236,379c-94.7-34.7-99.4-65.7-99.4-69.4v-1.9c0-3.8,4.7-34.7,99.4-69.4,23.5-8.4,46-15,66.6-18.7l21.6-61.9h46.9v57.2a209.6,209.6,0,0,1,48.7,8.4c52.5,15,77.8,46.9,77.8,84.4v.9A1,1,0,0,1,498.6,309.6Z"/></svg>